HIERARCHY
ROOT mixamorig4:Hips
{
	OFFSET 0.000000 96.663811 0.000000
	CHANNELS 6 Xposition Yposition Zposition Xrotation Yrotation Zrotation
	JOINT mixamorig4:Spine
	{
		OFFSET 0.000000 9.892899 -0.431000
		CHANNELS 3 Xrotation Yrotation Zrotation
		JOINT mixamorig4:Spine1
		{
			OFFSET 0.000000 11.541649 -0.502870
			CHANNELS 3 Xrotation Yrotation Zrotation
			JOINT mixamorig4:Spine2
			{
				OFFSET 0.000000 13.190491 -0.574710
				CHANNELS 3 Xrotation Yrotation Zrotation
				JOINT mixamorig4:Neck
				{
					OFFSET 0.000000 14.839325 -0.646549
					CHANNELS 3 Xrotation Yrotation Zrotation
					JOINT mixamorig4:Head
					{
						OFFSET 0.000000 7.381805 2.166100
						CHANNELS 3 Xrotation Yrotation Zrotation
						JOINT mixamorig4:HeadTop_End
						{
							OFFSET 0.000000 21.350494 6.265100
							CHANNELS 3 Xrotation Yrotation Zrotation
							End Site
							{
								OFFSET 0.000000 22.250732 0.000000
							}
						}
					}
				}
				JOINT mixamorig4:LeftShoulder
				{
					OFFSET 5.775700 12.826767 -0.654653
					CHANNELS 3 Xrotation Yrotation Zrotation
					JOINT mixamorig4:LeftArm
					{
						OFFSET 11.562311 -4.010452 -0.016174
						CHANNELS 3 Xrotation Yrotation Zrotation
						JOINT mixamorig4:LeftForeArm
						{
							OFFSET 20.800905 0.000000 0.000001
							CHANNELS 3 Xrotation Yrotation Zrotation
							JOINT mixamorig4:LeftHand
							{
								OFFSET 27.539200 0.000000 0.000000
								CHANNELS 3 Xrotation Yrotation Zrotation
								JOINT mixamorig4:LeftHandThumb1
								{
									OFFSET 3.100891 -1.286819 2.529086
									CHANNELS 3 Xrotation Yrotation Zrotation
									JOINT mixamorig4:LeftHandThumb2
									{
										OFFSET 2.604698 -1.503830 1.503824
										CHANNELS 3 Xrotation Yrotation Zrotation
										JOINT mixamorig4:LeftHandThumb3
										{
											OFFSET 2.412659 -1.392944 1.392950
											CHANNELS 3 Xrotation Yrotation Zrotation
											JOINT mixamorig4:LeftHandThumb4
											{
												OFFSET 2.004288 -1.157181 1.157175
												CHANNELS 3 Xrotation Yrotation Zrotation
												End Site
												{
													OFFSET 1.713249 -1.124954 1.579418
												}
											}
										}
									}
								}
								JOINT mixamorig4:LeftHandIndex1
								{
									OFFSET 9.290161 -0.230286 2.370967
									CHANNELS 3 Xrotation Yrotation Zrotation
									JOINT mixamorig4:LeftHandIndex2
									{
										OFFSET 3.036003 0.000000 0.000000
										CHANNELS 3 Xrotation Yrotation Zrotation
										JOINT mixamorig4:LeftHandIndex3
										{
											OFFSET 2.816505 0.000000 0.000000
											CHANNELS 3 Xrotation Yrotation Zrotation
											JOINT mixamorig4:LeftHandIndex4
											{
												OFFSET 2.471802 0.000000 0.000000
												CHANNELS 3 Xrotation Yrotation Zrotation
												End Site
												{
													OFFSET 2.471802 0.000000 -0.001400
												}
											}
										}
									}
								}
								JOINT mixamorig4:LeftHandMiddle1
								{
									OFFSET 9.276535 0.000000 0.000000
									CHANNELS 3 Xrotation Yrotation Zrotation
									JOINT mixamorig4:LeftHandMiddle2
									{
										OFFSET 3.234901 0.000000 0.000000
										CHANNELS 3 Xrotation Yrotation Zrotation
										JOINT mixamorig4:LeftHandMiddle3
										{
											OFFSET 2.983704 0.000000 0.000000
											CHANNELS 3 Xrotation Yrotation Zrotation
											JOINT mixamorig4:LeftHandMiddle4
											{
												OFFSET 2.678604 0.000000 0.000000
												CHANNELS 3 Xrotation Yrotation Zrotation
												End Site
												{
													OFFSET 2.678604 0.000000 -0.001300
												}
											}
										}
									}
								}
								JOINT mixamorig4:LeftHandRing1
								{
									OFFSET 8.915253 -0.006714 -1.944710
									CHANNELS 3 Xrotation Yrotation Zrotation
									JOINT mixamorig4:LeftHandRing2
									{
										OFFSET 2.780998 0.000000 0.000000
										CHANNELS 3 Xrotation Yrotation Zrotation
										JOINT mixamorig4:LeftHandRing3
										{
											OFFSET 2.676903 0.000000 0.000000
											CHANNELS 3 Xrotation Yrotation Zrotation
											JOINT mixamorig4:LeftHandRing4
											{
												OFFSET 2.394997 0.000000 0.000000
												CHANNELS 3 Xrotation Yrotation Zrotation
												End Site
												{
													OFFSET 2.395004 0.000000 0.000400
												}
											}
										}
									}
								}
								JOINT mixamorig4:LeftHandPinky1
								{
									OFFSET 8.123695 -0.229385 -3.925660
									CHANNELS 3 Xrotation Yrotation Zrotation
									JOINT mixamorig4:LeftHandPinky2
									{
										OFFSET 2.455399 0.000000 0.000000
										CHANNELS 3 Xrotation Yrotation Zrotation
										JOINT mixamorig4:LeftHandPinky3
										{
											OFFSET 2.070198 0.000000 0.000000
											CHANNELS 3 Xrotation Yrotation Zrotation
											JOINT mixamorig4:LeftHandPinky4
											{
												OFFSET 1.763000 0.000000 0.000000
												CHANNELS 3 Xrotation Yrotation Zrotation
												End Site
												{
													OFFSET 1.763000 0.000000 0.000000
												}
											}
										}
									}
								}
							}
						}
					}
				}
				JOINT mixamorig4:RightShoulder
				{
					OFFSET -5.775700 12.826767 -0.638438
					CHANNELS 3 Xrotation Yrotation Zrotation
					JOINT mixamorig4:RightArm
					{
						OFFSET -11.562309 -4.010468 0.016174
						CHANNELS 3 Xrotation Yrotation Zrotation
						JOINT mixamorig4:RightForeArm
						{
							OFFSET -20.814304 0.000000 -0.000001
							CHANNELS 3 Xrotation Yrotation Zrotation
							JOINT mixamorig4:RightHand
							{
								OFFSET -27.544006 0.000000 -0.000001
								CHANNELS 3 Xrotation Yrotation Zrotation
								JOINT mixamorig4:RightHandThumb1
								{
									OFFSET -3.074989 -1.237198 2.477178
									CHANNELS 3 Xrotation Yrotation Zrotation
									JOINT mixamorig4:RightHandThumb2
									{
										OFFSET -2.564148 -1.480408 1.480413
										CHANNELS 3 Xrotation Yrotation Zrotation
										JOINT mixamorig4:RightHandThumb3
										{
											OFFSET -2.418205 -1.396149 1.396152
											CHANNELS 3 Xrotation Yrotation Zrotation
											JOINT mixamorig4:RightHandThumb4
											{
												OFFSET -2.042076 -1.178986 1.178992
												CHANNELS 3 Xrotation Yrotation Zrotation
												End Site
												{
													OFFSET -1.711296 -1.134842 1.653396
												}
											}
										}
									}
								}
								JOINT mixamorig4:RightHandIndex1
								{
									OFFSET -9.296288 -0.339722 2.446129
									CHANNELS 3 Xrotation Yrotation Zrotation
									JOINT mixamorig4:RightHandIndex2
									{
										OFFSET -3.039406 0.000000 -0.000000
										CHANNELS 3 Xrotation Yrotation Zrotation
										JOINT mixamorig4:RightHandIndex3
										{
											OFFSET -2.797897 0.000000 -0.000000
											CHANNELS 3 Xrotation Yrotation Zrotation
											JOINT mixamorig4:RightHandIndex4
											{
												OFFSET -2.330803 0.000000 -0.000000
												CHANNELS 3 Xrotation Yrotation Zrotation
												End Site
												{
													OFFSET -2.330803 0.000000 -0.004300
												}
											}
										}
									}
								}
								JOINT mixamorig4:RightHandMiddle1
								{
									OFFSET -9.301529 0.000000 -0.000000
									CHANNELS 3 Xrotation Yrotation Zrotation
									JOINT mixamorig4:RightHandMiddle2
									{
										OFFSET -3.244804 0.000000 0.000000
										CHANNELS 3 Xrotation Yrotation Zrotation
										JOINT mixamorig4:RightHandMiddle3
										{
											OFFSET -2.990799 0.000000 0.000000
											CHANNELS 3 Xrotation Yrotation Zrotation
											JOINT mixamorig4:RightHandMiddle4
											{
												OFFSET -2.663803 0.000000 0.000000
												CHANNELS 3 Xrotation Yrotation Zrotation
												End Site
												{
													OFFSET -2.663803 0.000000 -0.000700
												}
											}
										}
									}
								}
								JOINT mixamorig4:RightHandRing1
								{
									OFFSET -9.124245 -0.157913 -2.036981
									CHANNELS 3 Xrotation Yrotation Zrotation
									JOINT mixamorig4:RightHandRing2
									{
										OFFSET -2.709801 0.000000 0.000000
										CHANNELS 3 Xrotation Yrotation Zrotation
										JOINT mixamorig4:RightHandRing3
										{
											OFFSET -2.570099 0.000000 0.000000
											CHANNELS 3 Xrotation Yrotation Zrotation
											JOINT mixamorig4:RightHandRing4
											{
												OFFSET -2.194504 0.000000 0.000000
												CHANNELS 3 Xrotation Yrotation Zrotation
												End Site
												{
													OFFSET -2.194504 0.000000 -0.002700
												}
											}
										}
									}
								}
								JOINT mixamorig4:RightHandPinky1
								{
									OFFSET -8.193573 -0.290237 -3.979754
									CHANNELS 3 Xrotation Yrotation Zrotation
									JOINT mixamorig4:RightHandPinky2
									{
										OFFSET -2.459801 0.000000 0.000000
										CHANNELS 3 Xrotation Yrotation Zrotation
										JOINT mixamorig4:RightHandPinky3
										{
											OFFSET -2.040001 0.000000 0.000000
											CHANNELS 3 Xrotation Yrotation Zrotation
											JOINT mixamorig4:RightHandPinky4
											{
												OFFSET -1.703903 0.000000 0.000000
												CHANNELS 3 Xrotation Yrotation Zrotation
												End Site
												{
													OFFSET -1.703903 0.000000 -0.000300
												}
											}
										}
									}
								}
							}
						}
					}
				}
			}
		}
	}
	JOINT mixamorig4:LeftUpLeg
	{
		OFFSET 9.206900 -5.488899 -0.519900
		CHANNELS 3 Xrotation Yrotation Zrotation
		JOINT mixamorig4:LeftLeg
		{
			OFFSET 0.939460 -43.456089 -2.162636
			CHANNELS 3 Xrotation Yrotation Zrotation
			JOINT mixamorig4:LeftFoot
			{
				OFFSET -0.939460 -36.744568 -2.955552
				CHANNELS 3 Xrotation Yrotation Zrotation
				JOINT mixamorig4:LeftToeBase
				{
					OFFSET 0.450000 -9.939129 12.432682
					CHANNELS 3 Xrotation Yrotation Zrotation
					JOINT mixamorig4:LeftToe_End
					{
						OFFSET 0.167031 -0.021090 4.948236
						CHANNELS 3 Xrotation Yrotation Zrotation
						End Site
						{
							OFFSET 0.167031 -0.021090 4.948236
						}
					}
				}
			}
		}
	}
	JOINT mixamorig4:RightUpLeg
	{
		OFFSET -9.206900 -5.488899 -0.459600
		CHANNELS 3 Xrotation Yrotation Zrotation
		JOINT mixamorig4:RightLeg
		{
			OFFSET -0.939411 -43.456059 -2.150847
			CHANNELS 3 Xrotation Yrotation Zrotation
			JOINT mixamorig4:RightFoot
			{
				OFFSET 0.939404 -36.744621 -3.027655
				CHANNELS 3 Xrotation Yrotation Zrotation
				JOINT mixamorig4:RightToeBase
				{
					OFFSET -0.450056 -9.939566 12.302768
					CHANNELS 3 Xrotation Yrotation Zrotation
					JOINT mixamorig4:RightToe_End
					{
						OFFSET -0.167048 -0.021339 4.889001
						CHANNELS 3 Xrotation Yrotation Zrotation
						End Site
						{
							OFFSET -0.167048 -0.021339 4.889002
						}
					}
				}
			}
		}
	}
}
MOTION
Frames: 6
Frame Time: 0.033333
-10.152711 79.123604 -62.551308 -353.371393 40.160085 7.242131 1.784993 1.953569 0.010406 3.584605 4.559036 -0.250819 3.584600 4.559041 -0.250821 1.954515 -0.617899 0.842179 1.954503 -0.617915 0.842179 0.000001 0.000001 -0.000000 -0.139169 -2.562852 7.025591 18.165752 -1.963318 -58.525514 5.025580 -129.909037 2.585290 28.999522 19.691558 17.812075 4.732062 -5.088855 17.307831 7.116518 14.696656 -16.356080 -0.000000 -0.000003 0.000004 -0.000000 -0.000006 0.000000 -3.353259 -1.770040 -36.005349 -4.452844 -1.744771 -56.328130 0.000005 -0.000000 -0.000005 -0.000000 0.000002 -0.000001 -3.377112 -1.002153 -42.414781 -4.083081 -2.839571 -49.222677 0.000007 0.000001 0.000003 -0.000001 -0.000000 0.000001 -0.806658 3.323304 -51.621668 -0.254305 -4.479653 -54.090211 -0.000011 -0.000001 -0.000003 -0.000001 -0.000000 -0.000000 1.255653 5.861145 -49.551520 0.712277 -7.842492 -66.668910 -0.000011 0.000008 -0.000005 -0.000002 -0.000002 0.000000 2.566240 12.931467 -5.539441 -47.147628 14.277869 0.356796 -27.446931 32.773949 17.062760 -66.786997 4.984867 21.476748 7.921146 16.048504 2.151087 26.698390 -25.605375 52.045878 -0.000006 0.000021 -0.000007 -0.000001 -0.000003 0.000003 -3.364552 2.301793 115.125639 -7.612760 -2.681093 100.521636 0.000002 -0.000001 0.000004 0.000002 -0.000000 -0.000001 -8.306575 -1.920682 108.944263 -8.141288 -1.065750 99.356617 -0.000001 0.000002 0.000005 -0.000000 0.000001 0.000000 -9.930663 -5.147977 113.519096 -3.482954 8.847965 90.030588 0.000006 -0.000004 0.000006 0.000002 -0.000000 0.000001 -15.477975 -4.352184 114.744842 -3.658328 14.803276 96.145663 -0.000008 -0.000013 -0.000001 -0.000000 0.000001 0.000001 -60.757838 12.001925 -4.783500 62.825637 -5.548526 -6.644729 -21.729967 0.507265 -2.189773 -2.018430 -0.000031 -0.000003 0.000001 0.000003 0.000001 6.145872 -21.097780 -3.097378 47.424452 -10.489837 3.264533 -31.825120 -7.260094 8.045509 -28.917549 -0.054278 0.570440 -0.000000 -0.000000 0.000000 
-8.787010 78.737541 -54.674522 -353.189219 46.094795 7.503886 1.202612 3.530135 -0.437795 2.459509 8.217921 -1.098530 2.459509 8.217938 -1.098531 1.354568 -1.014418 0.833360 1.354573 -1.014411 0.833363 0.000001 0.000001 -0.000001 -0.325033 0.591274 7.783062 29.134380 -10.222094 -63.552977 5.182334 -125.701176 2.504742 33.006377 7.933724 21.124011 6.926759 -4.010212 15.161000 9.662514 25.246575 -24.713749 -0.000003 0.000005 0.000003 -0.000001 -0.000002 -0.000000 -6.807149 -1.185907 -65.422038 -9.875117 -0.596334 -98.816124 0.000001 -0.000000 -0.000006 0.000003 0.000001 0.000000 -6.789707 -0.841702 -70.838433 -8.633035 -2.334879 -86.904581 0.000008 0.000000 0.000002 -0.000001 -0.000000 -0.000001 -3.672407 1.098188 -78.342625 -1.752692 -6.268873 -87.492982 -0.000012 0.000001 -0.000004 0.000004 0.000004 0.000000 -3.142192 1.453227 -76.006386 0.497466 -9.715138 -95.626009 -0.000009 0.000006 -0.000001 0.000003 -0.000000 0.000001 3.682887 12.094300 -13.453517 -66.010671 17.638480 3.915490 -21.808943 39.170442 16.064011 -46.047196 6.026541 15.999259 17.154426 21.601059 -9.893703 27.563292 -19.566148 63.068013 -0.000010 0.000022 -0.000006 0.000005 -0.000003 0.000001 -2.997001 2.572847 110.069783 -7.221604 -2.359957 95.375054 0.000001 -0.000001 0.000004 -0.000000 0.000000 -0.000000 -7.902187 -1.660237 104.390139 -7.803167 -0.767110 94.932943 0.000001 -0.000005 0.000004 0.000002 0.000000 0.000001 -9.576779 -4.980003 108.954160 -3.169246 8.710527 86.541666 0.000007 -0.000008 0.000006 0.000001 0.000000 -0.000001 -14.327505 -4.227360 109.940187 -3.621721 14.642027 96.727213 -0.000008 -0.000016 -0.000000 -0.000000 -0.000001 0.000000 -61.225857 12.202719 -13.998048 50.637213 -6.791266 -7.461993 -19.166735 -2.005249 -7.157838 -0.576227 0.000004 -0.000000 -0.000002 0.000002 0.000001 15.917530 -20.380861 4.172083 35.350276 -12.559746 4.624315 -21.820272 -10.606553 5.162063 -32.189739 -0.244983 2.362340 -0.000000 0.000000 0.000000 
-7.202611 78.123970 -46.473259 -350.022770 47.971700 6.146098 0.644073 5.433854 -1.217640 1.435899 12.430259 -2.535575 1.435895 12.430257 -2.535574 0.392567 -1.640632 1.172984 0.392564 -1.640624 1.172981 0.000000 -0.000001 0.000000 -0.641230 5.836649 8.396024 34.854913 -7.673630 -66.277615 6.263898 -122.106106 2.901889 25.526167 -2.999268 17.891740 8.306153 -3.508198 14.024012 12.679741 30.909451 -30.601402 -0.000000 0.000004 0.000003 0.000000 0.000003 0.000003 -8.448165 -0.206318 -82.227425 -12.139394 1.692111 -123.022963 0.000000 -0.000004 -0.000003 -0.000003 0.000001 0.000002 -8.572606 -0.009409 -87.076449 -10.852565 -0.701298 -109.274619 0.000003 0.000002 -0.000000 -0.000004 0.000002 0.000000 -5.777110 0.782329 -93.481118 -3.139565 -6.848499 -108.814298 -0.000005 -0.000001 -0.000006 0.000001 -0.000000 0.000002 -6.692732 0.815623 -91.292752 -0.082341 -10.713754 -113.292519 -0.000011 0.000006 -0.000001 0.000000 0.000001 -0.000001 4.541655 10.372575 -19.658382 -81.307986 22.461542 12.435422 -18.984789 52.784320 16.436116 -27.836264 13.882625 17.854289 21.981605 23.279740 -15.613900 28.838189 -17.018233 68.525300 -0.000011 0.000026 -0.000006 0.000005 -0.000002 0.000002 -2.913012 2.757491 108.385704 -7.252652 -2.388966 96.244858 0.000004 0.000004 0.000002 -0.000000 0.000003 0.000003 -7.728567 -1.589443 103.028745 -7.839688 -0.817263 95.916101 0.000001 -0.000002 0.000005 -0.000003 -0.000002 -0.000001 -9.582419 -4.989527 107.932220 -3.290789 8.749185 87.623739 0.000005 -0.000001 0.000010 0.000001 0.000001 0.000002 -14.161633 -4.377329 108.844747 -3.854055 14.684094 99.528513 -0.000006 -0.000010 0.000001 -0.000000 0.000003 -0.000002 -62.301564 10.804786 -19.160967 40.418666 -12.417358 -7.924270 -18.220913 -5.316312 -11.500142 0.049267 -0.000004 -0.000001 0.000002 -0.000001 0.000000 21.569531 -17.761798 8.723797 24.391196 -13.585865 4.554564 -8.786237 -14.783371 3.436541 -34.243174 -0.374063 4.022775 -0.000001 -0.000000 0.000000 
-5.722657 77.462967 -37.834076 -346.391814 45.215777 4.269454 0.224539 7.370040 -2.057378 0.738665 16.423688 -4.095839 0.738665 16.423692 -4.095842 -0.414343 -2.323345 1.653514 -0.414344 -2.323336 1.653514 0.000000 -0.000000 0.000000 -0.946609 11.392184 8.426053 37.247730 5.023951 -70.649469 7.378594 -121.757192 2.979508 7.197237 -1.916274 6.959026 8.380822 -3.651114 14.322331 12.436178 30.315566 -30.305000 -0.000006 0.000003 -0.000003 -0.000002 -0.000000 -0.000000 -8.310494 -0.313179 -80.672723 -11.972711 1.442385 -120.785229 0.000000 -0.000001 -0.000002 0.000001 0.000001 0.000002 -8.418305 -0.107325 -85.574470 -10.674514 -0.888952 -107.190871 0.000000 0.000002 0.000003 -0.000003 0.000002 -0.000000 -5.590016 0.781020 -92.229226 -2.998968 -6.815818 -106.778977 -0.000009 -0.000002 -0.000005 0.000002 0.000001 0.000000 -6.345298 0.806097 -89.788021 -0.008411 -10.616920 -111.505249 -0.000008 0.000007 -0.000002 -0.000001 0.000000 0.000000 4.788328 7.282466 -22.479652 -98.711192 33.183549 30.225595 -24.860120 63.055063 22.394493 -26.169696 17.854130 25.271973 23.250323 23.678072 -16.948237 29.584408 -16.575804 70.232499 -0.000009 0.000021 -0.000007 0.000002 0.000001 -0.000001 -2.689523 2.736888 106.977169 -7.396257 -2.518324 98.190144 0.000002 -0.000003 0.000002 0.000000 -0.000000 -0.000000 -7.625572 -1.528661 101.808095 -7.986794 -0.957385 97.895633 0.000000 -0.000002 0.000005 0.000000 -0.000001 -0.000001 -9.677197 -4.892047 107.316424 -3.451201 8.818934 89.350383 0.000008 -0.000006 0.000008 0.000000 -0.000000 0.000001 -14.302502 -4.227984 108.329963 -4.024648 14.752027 101.445870 -0.000008 -0.000015 0.000000 0.000001 -0.000001 0.000000 -66.155491 9.343893 -18.975336 41.629436 -16.796542 -7.550517 -17.904207 -10.155433 -7.822338 -0.509495 0.000008 0.000001 0.000000 -0.000001 -0.000000 25.016912 -14.509887 9.682325 15.951830 -12.667089 4.560683 8.059165 -17.595423 3.364763 -32.985658 -0.286668 3.329414 0.000000 -0.000000 -0.000000 
-4.672182 76.656578 -28.750797 -343.768311 41.218211 2.810315 -0.044733 8.634246 -2.822187 0.350416 18.819913 -5.560996 0.350410 18.819886 -5.560996 -0.799034 -2.820472 2.070225 -0.799048 -2.820502 2.070224 0.000000 0.000000 0.000000 -1.004332 13.857788 7.769272 38.658000 19.641749 -76.043959 7.747003 -122.145502 2.567245 -8.032680 6.935223 4.361697 7.796809 -4.114567 15.354590 10.558229 26.546184 -26.869238 -0.000002 0.000001 0.000005 -0.000000 -0.000003 0.000003 -7.263536 -0.970985 -69.783961 -10.552509 -0.097982 -105.103996 0.000003 -0.000002 -0.000005 0.000001 -0.000001 0.000001 -7.273816 -0.674914 -75.053479 -9.253930 -2.004784 -92.584751 0.000007 0.000001 -0.000001 -0.000001 0.000002 -0.000003 -4.204289 0.942361 -82.312167 -2.059909 -6.451971 -92.540102 -0.000009 0.000001 -0.000004 -0.000001 0.000001 -0.000004 -4.021139 1.139174 -79.909204 0.380961 -9.974335 -100.131796 -0.000010 0.000008 -0.000002 -0.000001 0.000000 0.000002 4.736439 5.769454 -20.964376 -116.963110 41.780800 60.607349 -24.605417 65.585792 21.511404 -19.786612 19.914236 25.631260 22.706561 23.593683 -16.271773 29.552388 -16.942310 69.809963 -0.000013 0.000020 -0.000006 0.000005 0.000001 0.000001 -2.712567 2.689605 107.358204 -7.451958 -2.564150 98.662861 0.000001 0.000000 0.000003 -0.000000 0.000000 -0.000000 -7.629743 -1.518944 101.616003 -8.048578 -1.004708 98.460694 0.000001 -0.000002 0.000006 -0.000001 -0.000000 -0.000000 -9.661944 -4.629052 105.079264 -3.465933 8.833266 89.638597 0.000008 -0.000006 0.000007 -0.000000 -0.000000 -0.000000 -14.299643 -3.703447 106.221265 -3.987453 14.754349 101.158421 -0.000008 -0.000012 -0.000002 -0.000001 0.000001 0.000000 -70.478680 8.252951 -16.387555 52.542466 -14.364771 -6.427711 -13.944577 -15.457304 1.490538 -0.308361 -0.000001 0.000001 0.000002 -0.000000 -0.000000 28.025678 -12.664388 9.471680 9.776869 -11.447433 4.092274 24.540836 -16.873491 5.601013 -20.821502 0.000002 -0.000009 -0.000008 -0.000001 -0.000002 
-4.101265 75.561684 -20.351517 -342.858858 39.471407 2.449680 0.250769 8.849775 -3.347086 1.075333 19.103802 -6.779107 1.075334 19.103809 -6.779110 -1.315299 -3.103278 2.147796 -1.315295 -3.103257 2.147797 0.000001 -0.000000 0.000001 -0.830717 13.235094 6.485576 38.266862 28.051471 -78.324457 7.932788 -118.297114 2.547300 -15.512507 6.503870 9.379706 6.851381 -4.800575 16.837682 8.625848 20.675804 -22.173702 -0.000002 0.000004 0.000005 -0.000000 0.000001 0.000001 -5.452277 -1.617755 -53.336503 -7.762382 -1.557997 -81.373371 0.000003 0.000000 -0.000004 0.000001 0.000000 0.000001 -5.400082 -1.113410 -59.159793 -6.811290 -2.906449 -71.427591 0.000004 0.000002 0.000003 -0.000001 0.000000 0.000000 -2.316097 1.783029 -67.355794 -1.010507 -5.641805 -73.748674 -0.000010 -0.000002 -0.000004 0.000000 -0.000000 0.000000 -0.949489 2.824190 -65.046589 0.695504 -8.961084 -84.008656 -0.000010 0.000007 -0.000002 0.000000 0.000000 -0.000001 4.052486 7.361899 -16.243862 -123.073766 51.173010 90.860757 -17.923128 64.653628 14.747406 -3.865533 22.041861 19.568941 21.610437 23.302041 -15.065650 29.012656 -17.427386 68.495705 -0.000015 0.000024 -0.000007 0.000005 -0.000005 -0.000001 -2.862790 2.676556 108.512349 -7.381595 -2.490771 97.630984 0.000002 -0.000001 0.000004 -0.000000 -0.000000 -0.000001 -7.744018 -1.583667 102.913008 -7.977330 -0.928089 97.460885 0.000001 -0.000002 0.000007 -0.000001 0.000000 0.000000 -9.644617 -4.805123 107.046918 -3.345977 8.784101 88.400352 0.000007 -0.000006 0.000007 -0.000001 -0.000001 0.000000 -14.285647 -3.889051 107.428617 -3.845208 14.700512 99.608023 -0.000008 -0.000016 -0.000000 0.000001 -0.000001 -0.000001 -71.278153 7.408211 -14.425950 62.050985 -8.215137 -5.001184 -7.416938 -17.264823 5.097567 -0.743598 -0.000005 0.000003 0.000001 -0.000000 -0.000000 25.674268 -14.431816 7.807341 17.886421 -10.831916 4.060766 27.815278 -12.220724 9.376911 -16.530371 -0.000001 -0.000007 -0.000001 -0.000000 -0.000001 
